<svg data-v-0dd9719b="" version="1.0" xmlns="http://www.w3.org/2000/svg" xmlns:xlink="http://www.w3.org/1999/xlink" width="100%" height="100%" viewBox="0 0 340.000000 250.000000" preserveAspectRatio="xMidYMid meet" color-interpolation-filters="sRGB" style="margin: auto;">   <g data-v-0dd9719b="" fill="#4a93fa" class="pmspacesvg" transform="translate(41.72926330566406,88.17199325561523)"><!----> <g><g transform="translate(0,0)" mask="url(#6ea2f966-2340-480e-9610-bb04e607ab38)"><g><rect data-gra="graph-name" fill="#4a93fa" x="0" y="0" width="246.0500030517578" height="59.500003814697266" transform="skewX(10)"></rect></g> <g data-gra="path-name" fill-rule="" class="tp-name" transform="translate(15.245728012393858,10)"><g transform="scale(1)"><g><path d="M15.8 0.53L15.8 0.53Q12.11 0.53 9.16-0.39 6.21-1.32 3.53-3.63L3.53-3.63Q2.84-4.21 2.47-4.95 2.11-5.69 2.11-6.42L2.11-6.42Q2.11-7.64 2.98-8.56 3.84-9.48 5.16-9.48L5.16-9.48Q6.16-9.48 6.95-8.85L6.95-8.85Q8.95-7.21 10.93-6.37 12.9-5.53 15.8-5.53L15.8-5.53Q17.74-5.53 19.38-6.13 21.01-6.74 22.01-7.77 23.01-8.79 23.01-10.11L23.01-10.11Q23.01-11.69 22.06-12.8 21.11-13.9 19.17-14.66 17.22-15.43 14.22-15.85L14.22-15.85Q11.37-16.27 9.21-17.14 7.06-18.01 5.61-19.35 4.16-20.69 3.42-22.51 2.69-24.33 2.69-26.59L2.69-26.59Q2.69-30.01 4.45-32.44 6.21-34.86 9.21-36.12 12.22-37.39 15.85-37.39L15.85-37.39Q19.27-37.39 22.19-36.36 25.12-35.33 26.96-33.75L26.96-33.75Q28.49-32.54 28.49-30.96L28.49-30.96Q28.49-29.8 27.59-28.86 26.7-27.91 25.49-27.91L25.49-27.91Q24.7-27.91 24.06-28.38L24.06-28.38Q23.22-29.12 21.8-29.78 20.38-30.43 18.8-30.88 17.22-31.33 15.85-31.33L15.85-31.33Q13.59-31.33 12.03-30.75 10.48-30.17 9.69-29.17 8.9-28.17 8.9-26.85L8.9-26.85Q8.9-25.27 9.82-24.25 10.74-23.22 12.48-22.62 14.22-22.01 16.64-21.54L16.64-21.54Q19.8-20.96 22.19-20.17 24.59-19.38 26.17-18.14 27.75-16.9 28.54-15.03 29.33-13.16 29.33-10.48L29.33-10.48Q29.33-7.06 27.43-4.58 25.54-2.11 22.46-0.79 19.38 0.53 15.8 0.53ZM38.54 0L38.54 0Q37.17 0 36.28-0.92 35.38-1.84 35.38-3.21L35.38-3.21 35.38-35.75Q35.38-37.12 36.28-38.04 37.17-38.97 38.54-38.97L38.54-38.97Q39.91-38.97 40.81-38.04 41.7-37.12 41.7-35.75L41.7-35.75 41.7-3.21Q41.7-1.84 40.81-0.92 39.91 0 38.54 0ZM55.29-28.17L55.29-28.17Q56.5-28.17 57.39-27.17 58.29-26.17 58.29-25.22L58.29-25.22Q58.29-23.96 57.03-22.85L57.03-22.85 41.18-8.27 40.91-15.53 52.97-27.17Q53.97-28.17 55.29-28.17ZM56.08-0.05L56.08-0.05Q54.71-0.05 53.76-1.11L53.76-1.11 44.02-11.43 48.81-15.85 58.29-5.53Q59.29-4.48 59.29-3.16L59.29-3.16Q59.29-1.79 58.21-0.92 57.13-0.05 56.08-0.05ZM70.77-24.96L70.77-3.21Q70.77-1.84 69.87-0.92 68.98 0 67.61 0L67.61 0Q66.24 0 65.35-0.92 64.45-1.84 64.45-3.21L64.45-3.21 64.45-24.96Q64.45-26.33 65.35-27.25 66.24-28.17 67.61-28.17L67.61-28.17Q68.98-28.17 69.87-27.25 70.77-26.33 70.77-24.96L70.77-24.96ZM67.56-31.59L67.56-31.59Q65.77-31.59 65.03-32.17 64.29-32.75 64.29-34.23L64.29-34.23 64.29-35.23Q64.29-36.75 65.11-37.31 65.92-37.86 67.61-37.86L67.61-37.86Q69.45-37.86 70.19-37.28 70.93-36.7 70.93-35.23L70.93-35.23 70.93-34.23Q70.93-32.7 70.14-32.15 69.35-31.59 67.56-31.59ZM84.09-35.75L84.09-3.21Q84.09-1.84 83.17-0.92 82.25 0 80.88 0L80.88 0Q79.56 0 78.67-0.92 77.77-1.84 77.77-3.21L77.77-3.21 77.77-35.75Q77.77-37.12 78.69-38.04 79.62-38.97 80.98-38.97L80.98-38.97Q82.35-38.97 83.22-38.04 84.09-37.12 84.09-35.75L84.09-35.75ZM98.31-35.75L98.31-3.21Q98.31-1.84 97.39-0.92 96.47 0 95.1 0L95.1 0Q93.78 0 92.88-0.92 91.99-1.84 91.99-3.21L91.99-3.21 91.99-35.75Q91.99-37.12 92.91-38.04 93.83-38.97 95.2-38.97L95.2-38.97Q96.57-38.97 97.44-38.04 98.31-37.12 98.31-35.75L98.31-35.75ZM109.52-36.91L109.52-36.91Q110.26-36.91 111.08-36.52 111.89-36.12 112.31-35.49L112.31-35.49 125.11-15.8 122.48-15.9 135.59-35.49Q136.59-36.91 138.17-36.91L138.17-36.91Q139.43-36.91 140.43-36.02 141.43-35.12 141.43-33.7L141.43-33.7 141.43-3.21Q141.43-1.84 140.54-0.92 139.64 0 138.17 0L138.17 0Q136.69 0 135.77-0.92 134.85-1.84 134.85-3.21L134.85-3.21 134.85-28.01 136.9-27.54 126.16-11.16Q125.69-10.58 124.98-10.16 124.27-9.74 123.53-9.79L123.53-9.79Q122.85-9.74 122.13-10.16 121.42-10.58 120.95-11.16L120.95-11.16 110.89-27.07 112.26-29.86 112.26-3.21Q112.26-1.84 111.42-0.92 110.58 0 109.21 0L109.21 0Q107.89 0 107.05-0.92 106.21-1.84 106.21-3.21L106.21-3.21 106.21-33.7Q106.21-35.02 107.18-35.96 108.15-36.91 109.52-36.91ZM171.6-28.7L171.6-28.7Q172.97-28.7 173.87-27.8 174.76-26.91 174.76-25.49L174.76-25.49 174.76-3.21Q174.76-1.84 173.87-0.92 172.97 0 171.6 0L171.6 0Q170.24 0 169.34-0.92 168.45-1.84 168.45-3.21L168.45-3.21 168.45-5.79 169.6-5.32Q169.6-4.63 168.87-3.66 168.13-2.69 166.87-1.74 165.6-0.79 163.89-0.13 162.18 0.53 160.18 0.53L160.18 0.53Q156.55 0.53 153.6-1.34 150.65-3.21 148.94-6.5 147.23-9.79 147.23-14.06L147.23-14.06Q147.23-18.38 148.94-21.67 150.65-24.96 153.54-26.83 156.44-28.7 159.97-28.7L159.97-28.7Q162.23-28.7 164.13-28.01 166.02-27.33 167.42-26.28 168.81-25.22 169.58-24.14 170.34-23.06 170.34-22.33L170.34-22.33 168.45-21.64 168.45-25.49Q168.45-26.85 169.34-27.78 170.24-28.7 171.6-28.7ZM160.97-5.27L160.97-5.27Q163.29-5.27 165.02-6.42 166.76-7.58 167.73-9.58 168.71-11.58 168.71-14.06L168.71-14.06Q168.71-16.59 167.73-18.59 166.76-20.59 165.02-21.75 163.29-22.91 160.97-22.91L160.97-22.91Q158.7-22.91 156.97-21.75 155.23-20.59 154.25-18.59 153.28-16.59 153.28-14.06L153.28-14.06Q153.28-11.58 154.25-9.58 155.23-7.58 156.97-6.42 158.7-5.27 160.97-5.27ZM181.93-27.64L181.93-27.64 194.4-27.64Q195.67-27.64 196.51-26.8 197.35-25.96 197.35-24.7L197.35-24.7Q197.35-23.48 196.51-22.67 195.67-21.85 194.4-21.85L194.4-21.85 181.93-21.85Q180.66-21.85 179.82-22.69 178.98-23.54 178.98-24.8L178.98-24.8Q178.98-26.01 179.82-26.83 180.66-27.64 181.93-27.64ZM187.56-34.23L187.56-34.23Q188.93-34.23 189.8-33.3 190.67-32.38 190.67-31.01L190.67-31.01 190.67-7.58Q190.67-6.85 190.96-6.37 191.25-5.9 191.75-5.69 192.25-5.48 192.83-5.48L192.83-5.48Q193.46-5.48 193.98-5.71 194.51-5.95 195.19-5.95L195.19-5.95Q195.93-5.95 196.54-5.27 197.14-4.58 197.14-3.37L197.14-3.37Q197.14-1.9 195.54-0.95 193.93 0 192.09 0L192.09 0Q190.98 0 189.64-0.18 188.3-0.37 187.11-1.08 185.93-1.79 185.14-3.26 184.35-4.74 184.35-7.32L184.35-7.32 184.35-31.01Q184.35-32.38 185.27-33.3 186.19-34.23 187.56-34.23ZM215.89 0.53L215.89 0.53Q211.41 0.53 208.12-1.34 204.83-3.21 203.07-6.42 201.3-9.64 201.3-13.69L201.3-13.69Q201.3-18.43 203.22-21.77 205.15-25.12 208.25-26.91 211.36-28.7 214.84-28.7L214.84-28.7Q217.52-28.7 219.92-27.59 222.31-26.49 224.16-24.56 226-22.64 227.08-20.11 228.16-17.59 228.16-14.74L228.16-14.74Q228.1-13.48 227.16-12.69 226.21-11.9 224.95-11.9L224.95-11.9 204.83-11.9 203.25-17.17 222.58-17.17 221.42-16.11 221.42-17.53Q221.31-19.06 220.34-20.27 219.36-21.48 217.92-22.19 216.47-22.91 214.84-22.91L214.84-22.91Q213.26-22.91 211.89-22.48 210.52-22.06 209.52-21.06 208.52-20.06 207.94-18.38 207.36-16.69 207.36-14.11L207.36-14.11Q207.36-11.27 208.54-9.29 209.73-7.32 211.6-6.29 213.47-5.27 215.57-5.27L215.57-5.27Q217.52-5.27 218.68-5.58 219.84-5.9 220.55-6.35 221.26-6.79 221.84-7.11L221.84-7.11Q222.79-7.58 223.63-7.58L223.63-7.58Q224.79-7.58 225.55-6.79 226.31-6 226.31-4.95L226.31-4.95Q226.31-3.53 224.84-2.37L224.84-2.37Q223.47-1.21 221-0.34 218.52 0.53 215.89 0.53Z" transform="translate(-2.109999895095825, 38.970001220703125)"></path></g> <!----> <!----> <!----> <!----> <!----> <!----> <!----></g></g></g> <g data-gra="path-slogan" fill-rule="" class="tp-slogan" fill="#4a93fa" transform="translate(48.1307373046875,65.50000762939453)"><!----> <!----> <g transform="scale(1, 1)"><g transform="scale(1)"><path d="M2.35-3.05L2.35 0L3.36 0L3.36-3.05L5.72-7.87L4.68-7.87L3.67-5.65C3.55-5.36 3.42-5.08 3.29-4.80C3.15-4.52 3.02-4.23 2.88-3.94L2.83-3.94C2.70-4.23 2.57-4.52 2.45-4.80C2.33-5.08 2.20-5.36 2.08-5.65L1.06-7.87L-0.01-7.87ZM9.53 0.14C10.02 0.14 10.48 0.05 10.89-0.14C11.30-0.34 11.66-0.61 11.96-0.97C12.26-1.32 12.49-1.75 12.65-2.26C12.82-2.77 12.90-3.34 12.90-3.97C12.90-4.60 12.82-5.16 12.65-5.66C12.49-6.16 12.26-6.58 11.96-6.93C11.66-7.28 11.30-7.55 10.89-7.73C10.48-7.92 10.02-8.02 9.53-8.02C9.03-8.02 8.58-7.92 8.17-7.74C7.75-7.56 7.40-7.29 7.10-6.94C6.81-6.59 6.58-6.17 6.41-5.67C6.25-5.17 6.17-4.60 6.17-3.97C6.17-3.34 6.25-2.77 6.41-2.26C6.58-1.75 6.81-1.32 7.10-0.97C7.40-0.61 7.75-0.34 8.17-0.14C8.58 0.05 9.03 0.14 9.53 0.14ZM9.53-0.73C9.18-0.73 8.86-0.81 8.57-0.96C8.29-1.11 8.05-1.33 7.84-1.61C7.64-1.90 7.48-2.24 7.37-2.63C7.26-3.03 7.20-3.48 7.20-3.97C7.20-4.46 7.26-4.90 7.37-5.29C7.48-5.68 7.64-6.02 7.84-6.29C8.05-6.56 8.29-6.77 8.57-6.92C8.86-7.07 9.18-7.14 9.53-7.14C9.88-7.14 10.20-7.07 10.48-6.92C10.77-6.77 11.01-6.56 11.21-6.29C11.42-6.02 11.58-5.68 11.69-5.29C11.80-4.90 11.86-4.46 11.86-3.97C11.86-3.48 11.80-3.03 11.69-2.63C11.58-2.24 11.42-1.90 11.21-1.61C11.01-1.33 10.77-1.11 10.48-0.96C10.20-0.81 9.88-0.73 9.53-0.73ZM14.56-7.87L14.56-3.25C14.56-2.62 14.63-2.09 14.77-1.66C14.92-1.22 15.11-0.87 15.37-0.61C15.62-0.34 15.92-0.15 16.27-0.03C16.61 0.09 16.99 0.14 17.39 0.14C17.79 0.14 18.16 0.09 18.50-0.03C18.85-0.15 19.15-0.34 19.40-0.61C19.65-0.87 19.85-1.22 19.99-1.66C20.14-2.09 20.21-2.62 20.21-3.25L20.21-7.87L19.25-7.87L19.25-3.23C19.25-2.76 19.20-2.36 19.10-2.04C19.01-1.72 18.88-1.46 18.71-1.27C18.54-1.08 18.34-0.94 18.12-0.86C17.90-0.77 17.65-0.73 17.39-0.73C17.13-0.73 16.89-0.77 16.67-0.86C16.44-0.94 16.25-1.08 16.09-1.27C15.92-1.46 15.79-1.72 15.70-2.04C15.60-2.36 15.55-2.76 15.55-3.23L15.55-7.87ZM23.33-4.14L23.33-7.07L24.65-7.07C25.26-7.07 25.74-6.96 26.06-6.76C26.39-6.55 26.56-6.18 26.56-5.66C26.56-5.15 26.39-4.77 26.06-4.52C25.74-4.27 25.26-4.14 24.65-4.14ZM26.65 0L27.78 0L25.79-3.43C26.32-3.57 26.75-3.82 27.07-4.19C27.39-4.56 27.55-5.05 27.55-5.66C27.55-6.07 27.48-6.42 27.35-6.70C27.21-6.98 27.02-7.20 26.78-7.38C26.53-7.56 26.24-7.68 25.90-7.76C25.56-7.83 25.19-7.87 24.79-7.87L22.33-7.87L22.33 0L23.33 0L23.33-3.32L24.76-3.32ZM33.36-7.03L33.36 0L34.37 0L34.37-7.03L36.74-7.03L36.74-7.87L30.98-7.87L30.98-7.03ZM39.16-4.14L39.16-7.07L40.48-7.07C41.09-7.07 41.56-6.96 41.89-6.76C42.22-6.55 42.38-6.18 42.38-5.66C42.38-5.15 42.22-4.77 41.89-4.52C41.56-4.27 41.09-4.14 40.48-4.14ZM42.48 0L43.61 0L41.62-3.43C42.15-3.57 42.58-3.82 42.90-4.19C43.22-4.56 43.38-5.05 43.38-5.66C43.38-6.07 43.31-6.42 43.18-6.70C43.04-6.98 42.85-7.20 42.61-7.38C42.36-7.56 42.07-7.68 41.73-7.76C41.39-7.83 41.02-7.87 40.62-7.87L38.16-7.87L38.16 0L39.16 0L39.16-3.32L40.58-3.32ZM45.10-7.87L45.10-3.25C45.10-2.62 45.17-2.09 45.31-1.66C45.46-1.22 45.65-0.87 45.91-0.61C46.16-0.34 46.46-0.15 46.81-0.03C47.15 0.09 47.53 0.14 47.93 0.14C48.33 0.14 48.70 0.09 49.04-0.03C49.39-0.15 49.69-0.34 49.94-0.61C50.19-0.87 50.39-1.22 50.53-1.66C50.68-2.09 50.75-2.62 50.75-3.25L50.75-7.87L49.79-7.87L49.79-3.23C49.79-2.76 49.74-2.36 49.64-2.04C49.55-1.72 49.42-1.46 49.25-1.27C49.08-1.08 48.88-0.94 48.66-0.86C48.44-0.77 48.19-0.73 47.93-0.73C47.67-0.73 47.43-0.77 47.21-0.86C46.98-0.94 46.79-1.08 46.63-1.27C46.46-1.46 46.33-1.72 46.24-2.04C46.14-2.36 46.09-2.76 46.09-3.23L46.09-7.87ZM52.78-1.72L52.18-1.02C52.52-0.66 52.93-0.38 53.40-0.17C53.87 0.04 54.38 0.14 54.94 0.14C55.35 0.14 55.72 0.09 56.05-0.03C56.38-0.15 56.66-0.31 56.89-0.51C57.12-0.71 57.30-0.95 57.43-1.22C57.55-1.50 57.61-1.79 57.61-2.10C57.61-2.39 57.57-2.64 57.49-2.86C57.40-3.08 57.29-3.27 57.14-3.44C57.00-3.60 56.83-3.75 56.63-3.87C56.43-3.99 56.22-4.10 55.99-4.20L54.88-4.68C54.72-4.74 54.56-4.81 54.41-4.89C54.26-4.97 54.12-5.05 53.99-5.15C53.86-5.25 53.76-5.37 53.68-5.50C53.61-5.63 53.57-5.80 53.57-5.99C53.57-6.35 53.70-6.63 53.97-6.83C54.24-7.04 54.59-7.14 55.03-7.14C55.40-7.14 55.73-7.07 56.02-6.94C56.31-6.81 56.58-6.63 56.82-6.40L57.36-7.04C57.08-7.33 56.74-7.57 56.34-7.75C55.94-7.93 55.50-8.02 55.03-8.02C54.67-8.02 54.34-7.96 54.04-7.86C53.74-7.76 53.48-7.61 53.26-7.42C53.04-7.23 52.87-7.01 52.75-6.76C52.62-6.50 52.56-6.22 52.56-5.93C52.56-5.64 52.61-5.39 52.70-5.17C52.80-4.95 52.92-4.76 53.08-4.60C53.23-4.44 53.40-4.30 53.59-4.19C53.78-4.08 53.97-3.98 54.16-3.90L55.28-3.41C55.47-3.32 55.64-3.24 55.80-3.16C55.96-3.08 56.10-2.99 56.21-2.89C56.33-2.79 56.42-2.67 56.49-2.53C56.56-2.39 56.59-2.22 56.59-2.02C56.59-1.63 56.45-1.32 56.16-1.09C55.87-0.85 55.47-0.73 54.95-0.73C54.54-0.73 54.15-0.82 53.77-1.00C53.39-1.18 53.06-1.42 52.78-1.72ZM60.55-7.03L60.55 0L61.56 0L61.56-7.03L63.94-7.03L63.94-7.87L58.18-7.87L58.18-7.03ZM65.35-7.87L65.35 0L70.01 0L70.01-0.85L66.35-0.85L66.35-3.71L69.34-3.71L69.34-4.56L66.35-4.56L66.35-7.03L69.89-7.03L69.89-7.87ZM71.68-7.87L71.68 0L73.69 0C74.28 0 74.81-0.09 75.26-0.27C75.72-0.45 76.10-0.71 76.42-1.05C76.73-1.39 76.96-1.81 77.12-2.30C77.28-2.79 77.36-3.35 77.36-3.97C77.36-5.23 77.05-6.19 76.42-6.86C75.78-7.54 74.86-7.87 73.64-7.87ZM73.57-0.82L72.67-0.82L72.67-7.06L73.57-7.06C74.49-7.06 75.18-6.79 75.64-6.26C76.10-5.74 76.33-4.97 76.33-3.97C76.33-2.97 76.10-2.20 75.64-1.64C75.18-1.09 74.49-0.82 73.57-0.82ZM81.50-1.72L80.90-1.02C81.25-0.66 81.66-0.38 82.13-0.17C82.60 0.04 83.11 0.14 83.66 0.14C84.08 0.14 84.45 0.09 84.78-0.03C85.11-0.15 85.39-0.31 85.62-0.51C85.85-0.71 86.03-0.95 86.15-1.22C86.28-1.50 86.34-1.79 86.34-2.10C86.34-2.39 86.30-2.64 86.21-2.86C86.13-3.08 86.02-3.27 85.87-3.44C85.73-3.60 85.56-3.75 85.36-3.87C85.16-3.99 84.94-4.10 84.72-4.20L83.60-4.68C83.44-4.74 83.29-4.81 83.14-4.89C82.98-4.97 82.84-5.05 82.72-5.15C82.59-5.25 82.49-5.37 82.41-5.50C82.33-5.63 82.30-5.80 82.30-5.99C82.30-6.35 82.43-6.63 82.70-6.83C82.97-7.04 83.32-7.14 83.76-7.14C84.13-7.14 84.46-7.07 84.75-6.94C85.04-6.81 85.31-6.63 85.55-6.40L86.09-7.04C85.81-7.33 85.47-7.57 85.07-7.75C84.67-7.93 84.23-8.02 83.76-8.02C83.40-8.02 83.07-7.96 82.77-7.86C82.47-7.76 82.21-7.61 81.99-7.42C81.77-7.23 81.60-7.01 81.47-6.76C81.35-6.50 81.29-6.22 81.29-5.93C81.29-5.64 81.34-5.39 81.43-5.17C81.53-4.95 81.65-4.76 81.80-4.60C81.96-4.44 82.13-4.30 82.32-4.19C82.51-4.08 82.70-3.98 82.88-3.90L84.01-3.41C84.20-3.32 84.37-3.24 84.53-3.16C84.69-3.08 84.83-2.99 84.94-2.89C85.06-2.79 85.15-2.67 85.22-2.53C85.29-2.39 85.32-2.22 85.32-2.02C85.32-1.63 85.18-1.32 84.89-1.09C84.60-0.85 84.20-0.73 83.68-0.73C83.27-0.73 82.87-0.82 82.49-1.00C82.11-1.18 81.78-1.42 81.50-1.72ZM87.89-7.87L87.89 0L88.88 0L88.88-2.50L90.24-4.09L92.59 0L93.71 0L90.86-4.87L93.32-7.87L92.20-7.87L88.92-3.92L88.88-3.92L88.88-7.87ZM94.84-7.87L94.84 0L95.83 0L95.83-7.87ZM97.99-7.87L97.99 0L102.43 0L102.43-0.85L98.99-0.85L98.99-7.87ZM103.82-7.87L103.82 0L108.26 0L108.26-0.85L104.82-0.85L104.82-7.87ZM112.08-7.87L112.08 0L113.08 0L113.08-3.12L114.49-3.12C114.92-3.12 115.32-3.17 115.67-3.27C116.03-3.37 116.34-3.52 116.59-3.72C116.85-3.92 117.05-4.17 117.19-4.48C117.33-4.78 117.40-5.14 117.40-5.56C117.40-5.99 117.33-6.35 117.19-6.65C117.05-6.94 116.85-7.18 116.60-7.36C116.35-7.54 116.04-7.67 115.68-7.75C115.32-7.83 114.92-7.87 114.49-7.87ZM114.37-3.94L113.08-3.94L113.08-7.07L114.37-7.07C115.05-7.07 115.56-6.96 115.90-6.74C116.23-6.52 116.40-6.12 116.40-5.56C116.40-5.00 116.23-4.59 115.90-4.33C115.57-4.07 115.06-3.94 114.37-3.94ZM121.74-3.20L119.38-3.20L119.75-4.40C119.89-4.84 120.03-5.28 120.16-5.72C120.28-6.15 120.41-6.60 120.53-7.06L120.58-7.06C120.70-6.60 120.83-6.15 120.96-5.72C121.09-5.28 121.22-4.84 121.37-4.40ZM121.99-2.40L122.74 0L123.80 0L121.14-7.87L120.01-7.87L117.35 0L118.37 0L119.12-2.40ZM125.92-4.14L125.92-7.07L127.24-7.07C127.85-7.07 128.32-6.96 128.65-6.76C128.98-6.55 129.14-6.18 129.14-5.66C129.14-5.15 128.98-4.77 128.65-4.52C128.32-4.27 127.85-4.14 127.24-4.14ZM129.24 0L130.37 0L128.38-3.43C128.91-3.57 129.34-3.82 129.66-4.19C129.98-4.56 130.14-5.05 130.14-5.66C130.14-6.07 130.07-6.42 129.94-6.70C129.80-6.98 129.61-7.20 129.37-7.38C129.12-7.56 128.83-7.68 128.49-7.76C128.15-7.83 127.78-7.87 127.38-7.87L124.92-7.87L124.92 0L125.92 0L125.92-3.32L127.34-3.32ZM133.28-7.03L133.28 0L134.29 0L134.29-7.03L136.67-7.03L136.67-7.87L130.91-7.87L130.91-7.03ZM138.08-7.87L138.08 0L139.03 0L139.03-4.12C139.03-4.53 139.02-4.95 138.99-5.36C138.96-5.77 138.93-6.18 138.90-6.58L138.95-6.58L139.80-4.96L142.66 0L143.69 0L143.69-7.87L142.74-7.87L142.74-3.80C142.74-3.39 142.75-2.97 142.78-2.54C142.81-2.11 142.84-1.70 142.86-1.30L142.81-1.30L141.96-2.93L139.12-7.87ZM145.85-7.87L145.85 0L150.50 0L150.50-0.85L146.84-0.85L146.84-3.71L149.83-3.71L149.83-4.56L146.84-4.56L146.84-7.03L150.38-7.03L150.38-7.87ZM153.17-4.14L153.17-7.07L154.49-7.07C155.10-7.07 155.58-6.96 155.90-6.76C156.23-6.55 156.40-6.18 156.40-5.66C156.40-5.15 156.23-4.77 155.90-4.52C155.58-4.27 155.10-4.14 154.49-4.14ZM156.49 0L157.62 0L155.63-3.43C156.16-3.57 156.59-3.82 156.91-4.19C157.23-4.56 157.39-5.05 157.39-5.66C157.39-6.07 157.32-6.42 157.19-6.70C157.05-6.98 156.86-7.20 156.62-7.38C156.37-7.56 156.08-7.68 155.74-7.76C155.40-7.83 155.03-7.87 154.63-7.87L152.17-7.87L152.17 0L153.17 0L153.17-3.32L154.60-3.32ZM158.84-0.60C158.84-0.38 158.91-0.21 159.05-0.07C159.19 0.07 159.36 0.14 159.56 0.14C159.76 0.14 159.92 0.07 160.06-0.07C160.20-0.21 160.27-0.38 160.27-0.60C160.27-0.83 160.20-1.02 160.06-1.16C159.92-1.30 159.76-1.37 159.56-1.37C159.36-1.37 159.19-1.30 159.05-1.16C158.91-1.02 158.84-0.83 158.84-0.60Z" transform="translate(0.012, 8.016)"></path></g></g></g></g></g><mask id="6ea2f966-2340-480e-9610-bb04e607ab38"><g fill="white"><rect data-gra="graph-name" x="0" y="0" width="246.0500030517578" height="59.500003814697266" transform="skewX(10)"></rect></g> <g data-gra="path-name" fill-rule="" class="tp-name" transform="translate(15.245728012393858,10)" fill="black"><g transform="scale(1)"><g><path d="M15.8 0.53L15.8 0.53Q12.11 0.53 9.16-0.39 6.21-1.32 3.53-3.63L3.53-3.63Q2.84-4.21 2.47-4.95 2.11-5.69 2.11-6.42L2.11-6.42Q2.11-7.64 2.98-8.56 3.84-9.48 5.16-9.48L5.16-9.48Q6.16-9.48 6.95-8.85L6.95-8.85Q8.95-7.21 10.93-6.37 12.9-5.53 15.8-5.53L15.8-5.53Q17.74-5.53 19.38-6.13 21.01-6.74 22.01-7.77 23.01-8.79 23.01-10.11L23.01-10.11Q23.01-11.69 22.06-12.8 21.11-13.9 19.17-14.66 17.22-15.43 14.22-15.85L14.22-15.85Q11.37-16.27 9.21-17.14 7.06-18.01 5.61-19.35 4.16-20.69 3.42-22.51 2.69-24.33 2.69-26.59L2.69-26.59Q2.69-30.01 4.45-32.44 6.21-34.86 9.21-36.12 12.22-37.39 15.85-37.39L15.85-37.39Q19.27-37.39 22.19-36.36 25.12-35.33 26.96-33.75L26.96-33.75Q28.49-32.54 28.49-30.96L28.49-30.96Q28.49-29.8 27.59-28.86 26.7-27.91 25.49-27.91L25.49-27.91Q24.7-27.91 24.06-28.38L24.06-28.38Q23.22-29.12 21.8-29.78 20.38-30.43 18.8-30.88 17.22-31.33 15.85-31.33L15.85-31.33Q13.59-31.33 12.03-30.75 10.48-30.17 9.69-29.17 8.9-28.17 8.9-26.85L8.9-26.85Q8.9-25.27 9.82-24.25 10.74-23.22 12.48-22.62 14.22-22.01 16.64-21.54L16.64-21.54Q19.8-20.96 22.19-20.17 24.59-19.38 26.17-18.14 27.75-16.9 28.54-15.03 29.33-13.16 29.33-10.48L29.33-10.48Q29.33-7.06 27.43-4.58 25.54-2.11 22.46-0.79 19.38 0.53 15.8 0.53ZM38.54 0L38.54 0Q37.17 0 36.28-0.92 35.38-1.84 35.38-3.21L35.38-3.21 35.38-35.75Q35.38-37.12 36.28-38.04 37.17-38.97 38.54-38.97L38.54-38.97Q39.91-38.97 40.81-38.04 41.7-37.12 41.7-35.75L41.7-35.75 41.7-3.21Q41.7-1.84 40.81-0.92 39.91 0 38.54 0ZM55.29-28.17L55.29-28.17Q56.5-28.17 57.39-27.17 58.29-26.17 58.29-25.22L58.29-25.22Q58.29-23.96 57.03-22.85L57.03-22.85 41.18-8.27 40.91-15.53 52.97-27.17Q53.97-28.17 55.29-28.17ZM56.08-0.05L56.08-0.05Q54.71-0.05 53.76-1.11L53.76-1.11 44.02-11.43 48.81-15.85 58.29-5.53Q59.29-4.48 59.29-3.16L59.29-3.16Q59.29-1.79 58.21-0.92 57.13-0.05 56.08-0.05ZM70.77-24.96L70.77-3.21Q70.77-1.84 69.87-0.92 68.98 0 67.61 0L67.61 0Q66.24 0 65.35-0.92 64.45-1.84 64.45-3.21L64.45-3.21 64.45-24.96Q64.45-26.33 65.35-27.25 66.24-28.17 67.61-28.17L67.61-28.17Q68.98-28.17 69.87-27.25 70.77-26.33 70.77-24.96L70.77-24.96ZM67.56-31.59L67.56-31.59Q65.77-31.59 65.03-32.17 64.29-32.75 64.29-34.23L64.29-34.23 64.29-35.23Q64.29-36.75 65.11-37.31 65.92-37.86 67.61-37.86L67.61-37.86Q69.45-37.86 70.19-37.28 70.93-36.7 70.93-35.23L70.93-35.23 70.93-34.23Q70.93-32.7 70.14-32.15 69.35-31.59 67.56-31.59ZM84.09-35.75L84.09-3.21Q84.09-1.84 83.17-0.92 82.25 0 80.88 0L80.88 0Q79.56 0 78.67-0.92 77.77-1.84 77.77-3.21L77.77-3.21 77.77-35.75Q77.77-37.12 78.69-38.04 79.62-38.97 80.98-38.97L80.98-38.97Q82.35-38.97 83.22-38.04 84.09-37.12 84.09-35.75L84.09-35.75ZM98.31-35.75L98.31-3.21Q98.31-1.84 97.39-0.92 96.47 0 95.1 0L95.1 0Q93.78 0 92.88-0.92 91.99-1.84 91.99-3.21L91.99-3.21 91.99-35.75Q91.99-37.12 92.91-38.04 93.83-38.97 95.2-38.97L95.2-38.97Q96.57-38.97 97.44-38.04 98.31-37.12 98.31-35.75L98.31-35.75ZM109.52-36.91L109.52-36.91Q110.26-36.91 111.08-36.52 111.89-36.12 112.31-35.49L112.31-35.49 125.11-15.8 122.48-15.9 135.59-35.49Q136.59-36.91 138.17-36.91L138.17-36.91Q139.43-36.91 140.43-36.02 141.43-35.12 141.43-33.7L141.43-33.7 141.43-3.21Q141.43-1.84 140.54-0.92 139.64 0 138.17 0L138.17 0Q136.69 0 135.77-0.92 134.85-1.84 134.85-3.21L134.85-3.21 134.85-28.01 136.9-27.54 126.16-11.16Q125.69-10.58 124.98-10.16 124.27-9.74 123.53-9.79L123.53-9.79Q122.85-9.74 122.13-10.16 121.42-10.58 120.95-11.16L120.95-11.16 110.89-27.07 112.26-29.86 112.26-3.21Q112.26-1.84 111.42-0.92 110.58 0 109.21 0L109.21 0Q107.89 0 107.05-0.92 106.21-1.84 106.21-3.21L106.21-3.21 106.21-33.7Q106.21-35.02 107.18-35.96 108.15-36.91 109.52-36.91ZM171.6-28.7L171.6-28.7Q172.97-28.7 173.87-27.8 174.76-26.91 174.76-25.49L174.76-25.49 174.76-3.21Q174.76-1.84 173.87-0.92 172.97 0 171.6 0L171.6 0Q170.24 0 169.34-0.92 168.45-1.84 168.45-3.21L168.45-3.21 168.45-5.79 169.6-5.32Q169.6-4.63 168.87-3.66 168.13-2.69 166.87-1.74 165.6-0.79 163.89-0.13 162.18 0.53 160.18 0.53L160.18 0.53Q156.55 0.53 153.6-1.34 150.65-3.21 148.94-6.5 147.23-9.79 147.23-14.06L147.23-14.06Q147.23-18.38 148.94-21.67 150.65-24.96 153.54-26.83 156.44-28.7 159.97-28.7L159.97-28.7Q162.23-28.7 164.13-28.01 166.02-27.33 167.42-26.28 168.81-25.22 169.58-24.14 170.34-23.06 170.34-22.33L170.34-22.33 168.45-21.64 168.45-25.49Q168.45-26.85 169.34-27.78 170.24-28.7 171.6-28.7ZM160.97-5.27L160.97-5.27Q163.29-5.27 165.02-6.42 166.76-7.58 167.73-9.58 168.71-11.58 168.71-14.06L168.71-14.06Q168.71-16.59 167.73-18.59 166.76-20.59 165.02-21.75 163.29-22.91 160.97-22.91L160.97-22.91Q158.7-22.91 156.97-21.75 155.23-20.59 154.25-18.59 153.28-16.59 153.28-14.06L153.28-14.06Q153.28-11.58 154.25-9.58 155.23-7.58 156.97-6.42 158.7-5.27 160.97-5.27ZM181.93-27.64L181.93-27.64 194.4-27.64Q195.67-27.64 196.51-26.8 197.35-25.96 197.35-24.7L197.35-24.7Q197.35-23.48 196.51-22.67 195.67-21.85 194.4-21.85L194.4-21.85 181.93-21.85Q180.66-21.85 179.82-22.69 178.98-23.54 178.98-24.8L178.98-24.8Q178.98-26.01 179.82-26.83 180.66-27.64 181.93-27.64ZM187.56-34.23L187.56-34.23Q188.93-34.23 189.8-33.3 190.67-32.38 190.67-31.01L190.67-31.01 190.67-7.58Q190.67-6.85 190.96-6.37 191.25-5.9 191.75-5.69 192.25-5.48 192.83-5.48L192.83-5.48Q193.46-5.48 193.98-5.71 194.51-5.95 195.19-5.95L195.19-5.95Q195.93-5.95 196.54-5.27 197.14-4.58 197.14-3.37L197.14-3.37Q197.14-1.9 195.54-0.95 193.93 0 192.09 0L192.09 0Q190.98 0 189.64-0.18 188.3-0.37 187.11-1.08 185.93-1.79 185.14-3.26 184.35-4.74 184.35-7.32L184.35-7.32 184.35-31.01Q184.35-32.38 185.27-33.3 186.19-34.23 187.56-34.23ZM215.89 0.53L215.89 0.53Q211.41 0.53 208.12-1.34 204.83-3.21 203.07-6.42 201.3-9.64 201.3-13.69L201.3-13.69Q201.3-18.43 203.22-21.77 205.15-25.12 208.25-26.91 211.36-28.7 214.84-28.7L214.84-28.7Q217.52-28.7 219.92-27.59 222.31-26.49 224.16-24.56 226-22.64 227.08-20.11 228.16-17.59 228.16-14.74L228.16-14.74Q228.1-13.48 227.16-12.69 226.21-11.9 224.95-11.9L224.95-11.9 204.83-11.9 203.25-17.17 222.58-17.17 221.42-16.11 221.42-17.53Q221.31-19.06 220.34-20.27 219.36-21.48 217.92-22.19 216.47-22.91 214.84-22.91L214.84-22.91Q213.26-22.91 211.89-22.48 210.52-22.06 209.52-21.06 208.52-20.06 207.94-18.38 207.36-16.69 207.36-14.11L207.36-14.11Q207.36-11.27 208.54-9.29 209.73-7.32 211.6-6.29 213.47-5.27 215.57-5.27L215.57-5.27Q217.52-5.27 218.68-5.58 219.84-5.9 220.55-6.35 221.26-6.79 221.84-7.11L221.84-7.11Q222.79-7.58 223.63-7.58L223.63-7.58Q224.79-7.58 225.55-6.79 226.31-6 226.31-4.95L226.31-4.95Q226.31-3.53 224.84-2.37L224.84-2.37Q223.47-1.21 221-0.34 218.52 0.53 215.89 0.53Z" transform="translate(-2.109999895095825, 38.970001220703125)"></path></g>       </g></g></mask><defs v-gra="od"></defs></svg>